<?xml version="1.0" encoding="utf-8"?>
<!-- Generator: Adobe Illustrator 26.0.3, SVG Export Plug-In . SVG Version: 6.00 Build 0)  -->
<svg version="1.1" id="Layer_1" xmlns="http://www.w3.org/2000/svg" xmlns:xlink="http://www.w3.org/1999/xlink" x="0px" y="0px"
	 viewBox="0 0 179.8 120.8" style="enable-background:new 0 0 179.8 120.8;" xml:space="preserve">
<style type="text/css">
	.st0{fill:#008184;}
	.st1{fill:#008284;}
	.st2{fill:#44555F;}
	.st3{fill:#455660;}
	.st4{fill:#4A5A64;}
</style>
<g id="Group_21992" transform="translate(-541 -440.337)">
	<g id="HitHolonLogo" transform="translate(486.207 356.591)">
		<path id="Path_149172" class="st0" d="M138.3,111.9c0,6.8,0,13.6,0,20.4c0.2,1.8-1.2,3.4-3,3.6c-0.2,0-0.5,0-0.7,0
			c-1.4-0.1-2.9,0-4.3,0c-1.6,0.1-3-1.1-3.1-2.8c0-0.1,0-0.2,0-0.4c0-2.8,0-5.6,0-8.5c0-1.8-0.8-2.6-2.6-2.6c-2.8,0-5.6,0-8.3,0
			c-1.8,0-2.5,0.7-2.5,2.5V149c0.2,1.5-0.8,2.9-2.3,3.3c-0.2,0.1-0.5,0.1-0.7,0.1H106c-1.7,0.1-3.1-1.2-3.2-2.9c0,0,0-0.1,0-0.1
			c0-0.1,0-0.3,0-0.4v-41.4c-0.1-1.5,0.8-2.9,2.3-3.3c0.2-0.1,0.5-0.1,0.7-0.1c1.7,0,3.3,0,5,0c1.6,0,3,1.2,3,2.8c0,0,0,0.1,0,0.1
			c0,1.3,0,2.6,0,3.9c-0.1,1.2,0.7,2.3,1.9,2.4c0.2,0,0.3,0,0.5,0c2.8-0.1,5.7,0,8.5,0c1.7,0,2.5-0.7,2.5-2.5V91
			c-0.2-1.6,1-3.1,2.6-3.3c0.2,0,0.5,0,0.7,0c1.4,0,2.9,0.1,4.3,0c2.2-0.1,3.5,1.4,3.5,3.6c0,5.6,0,11.2,0,16.8
			C138.3,109.4,138.3,110.6,138.3,111.9z"/>
		<path id="Path_149173" class="st0" d="M144.1,128.3c0-6.9,0-13.7,0-20.6c-0.1-1.8,1.2-3.3,3-3.5c0.2,0,0.4,0,0.5,0
			c1.5,0.1,3,0,4.5,0c1.6,0,3,1.3,3,2.9c0,0,0,0.1,0,0.1v42.1c0,1.6-1.3,3-2.9,3c0,0-0.1,0-0.1,0c-1.6,0-3.2,0-4.8,0
			c-1.6,0.1-3.1-1.1-3.2-2.8c0-0.1,0-0.2,0-0.4V128.3z"/>
		<path id="Path_149174" class="st0" d="M173.9,104.3h10.3c1.6-0.1,3,1.1,3.1,2.7c0,0.2,0,0.3,0,0.5v4.8c0,1.6-1.2,3-2.9,3
			c0,0-0.1,0-0.1,0c-0.8,0-1.7,0-2.5,0c-1.2-0.2-2.2,0.6-2.4,1.8c0,0.2,0,0.4,0,0.6c0,4.9-0.1,9.8,0,14.7c0.2,1.8-1.2,3.4-2.9,3.5
			c-0.2,0-0.4,0-0.5,0c-1.5-0.1-3,0-4.5,0c-1.7,0.1-3.1-1.2-3.1-2.9c0-0.1,0-0.2,0-0.3c0-5,0-10,0-15c0.1-1.3-0.9-2.3-2.1-2.4
			c-0.1,0-0.2,0-0.3,0c-1.1,0.1-2.2,0.1-3.2-0.1c-1.3-0.3-2.2-1.5-2.2-2.8c0-1.8,0-3.5,0-5.3c0-1.6,1.3-2.9,2.9-2.8
			C167,104.3,170.4,104.3,173.9,104.3z"/>
		<path id="Path_149175" class="st1" d="M132.7,152.4c-0.9,0-1.7,0-2.6,0c-1.5,0-2.8-1.1-2.9-2.6c-0.1-1.9-0.1-3.8,0-5.7
			c0.1-1.6,1.4-2.8,3-2.8c1.7,0,3.4,0,5.1,0c1.5,0,2.8,1.2,2.9,2.7c0.2,1.9,0.2,3.9,0,5.8c-0.2,1.4-1.4,2.5-2.8,2.5
			C134.5,152.4,133.6,152.4,132.7,152.4z"/>
		<path id="Path_149176" class="st0" d="M144.1,93.3c0-0.9,0-1.8,0-2.6c0-1.6,1.3-2.9,2.9-2.9c1.7,0,3.4,0,5.1,0
			c1.7-0.1,3,1.2,3.1,2.9c0,0,0,0.1,0,0.1c0,1.7,0,3.3,0,5c0,1.7-1.4,3-3,3c0,0,0,0,0,0c-1.6,0-3.3,0-4.9,0c-1.6,0-3-1.3-3.1-2.9
			c0,0,0-0.1,0-0.1L144.1,93.3z"/>
		<path id="Path_149177" class="st0" d="M168.4,146.9v-2.6c0-1.6,1.3-3,2.9-3c1.7,0,3.4,0,5.1,0c1.7,0,3,1.4,3,3.1c0,1.7,0,3.3,0,5
			c0,1.6-1.3,3-2.9,3c0,0-0.1,0-0.1,0c-1.7,0-3.4,0-5.1,0c-1.6,0-2.9-1.3-3-2.9c0,0,0,0,0-0.1V146.9z"/>
		<path id="Path_149178" class="st2" d="M218.3,164.2h3.1c0.3,0,0.4,0.2,0.5,0.5c0.2,0.7,0.3,1.3,0.5,2c0.4-0.1,0.4-0.5,0.5-0.7
			c0.3-1.1,1.3-2,2.5-2c1.6,0,2.9,0.3,3.7,1.8c0.3,0.6,0.5,1.3,0.6,2c0.3,1.8,0.2,3.7-0.2,5.5c-0.6,2.8-2.8,3.1-5.1,2.9
			c-0.3,0-0.5-0.3-0.5-0.6c0,0,0,0,0-0.1c0-0.6,0-1.2,0-1.8c0.5,0.4,1.2,0.4,1.8,0.1c0.5-0.4,0.7-1,0.6-1.6c0.1-1.5,0.1-3.1-0.1-4.6
			c-0.1-0.7-0.4-1.2-1.2-1.3c-0.7-0.1-1.3,0.3-1.5,1c-0.6,1.4-0.9,2.9-1,4.5c-0.1,1.2-0.2,2.4-0.3,3.5c0,0.5-0.2,0.6-0.6,0.6
			c-0.7,0-1.4,0-2.1,0c-0.5,0-0.7-0.1-0.6-0.6c0.3-1.9,0.5-3.9,0.8-5.8c0.1-1,0-1.9-0.4-2.8C218.9,165.8,218.6,165,218.3,164.2z"/>
		<path id="Path_149179" class="st2" d="M94.3,170c0-1.7,0-3.4,0-5.1c0-0.5,0.1-0.7,0.7-0.7c1.8,0,3.6,0,5.4,0c0.3,0,0.5,0,0.8,0
			c1.7,0.2,2.6,1,2.7,2.8c0.1,2.8,0,5.6,0.1,8.5c0,0.3-0.2,0.4-0.5,0.4c-0.8,0-1.6,0-2.4,0c-0.5,0-0.6-0.2-0.6-0.6
			c0-2.4,0-4.7,0-7.1c0.1-0.9-0.6-1.8-1.5-1.9c-0.3,0-0.6,0-0.9,0.2c-0.4,0.1-0.2,0.4-0.2,0.6c0,2.5,0,5,0,7.5c0,1.3,0,1.3-1.3,1.3
			c-0.5,0-0.9,0-1.4,0c-0.6,0.1-0.9-0.1-0.8-0.8C94.3,173.4,94.3,171.7,94.3,170z"/>
		<path id="Path_149180" class="st2" d="M179.3,166.4c0.1-0.3,0.1-0.7,0.2-1c0.3-1.2,0.6-1.5,1.9-1.5c1.5-0.2,2.9,1,3,2.5
			c0,0,0,0,0,0.1c0.4,2,0.4,4.1,0.1,6.1c-0.4,2.5-1.3,3.3-3.8,3.6c-1,0.1-1.9,0.1-2.9-0.1c-1.9-0.3-3.2-1.9-3.2-3.8
			c-0.1-2.6,0-5.2-0.1-7.8c0-0.3,0.1-0.4,0.4-0.4c0.9,0,1.7,0,2.6,0c0.5,0,0.4,0.3,0.4,0.6v6.5c0,0.6,0,1.3,0.2,1.9
			c0.2,0.7,0.9,1.1,1.6,1c0.7,0.1,1.3-0.4,1.4-1.1c0.3-1.9,0.3-3.9,0-5.9C181,166.3,180.4,166.1,179.3,166.4z"/>
		<path id="Path_149181" class="st2" d="M77.2,175.9c0.8-2.5,1.6-4.8,2.4-7.2c0.2-0.6,0.4-1.2,0.6-1.7c0.2-0.4,0-0.5-0.4-0.5
			c-1.3,0-2.6,0-3.9,0c-0.5,0-0.7-0.1-0.7-0.6c0-1.6,0-3.1,0-4.7c0-0.5,0.2-0.6,0.6-0.6c0.7,0,1.4,0,2.1,0c0.5,0,0.7,0.1,0.7,0.6
			c0,0.8,0,1.6,0,2.4c0,0.4,0.1,0.6,0.6,0.6c1.3,0,2.6,0,3.9,0c0.5,0,0.6,0.2,0.6,0.6c0,1-0.1,2.1-0.5,3c-0.9,2.5-1.7,4.9-2.5,7.4
			c-0.1,0.4-0.4,0.7-0.8,0.6c0,0,0,0,0,0C79,175.8,78.2,175.9,77.2,175.9z"/>
		<path id="Path_149182" class="st2" d="M136.5,163.5c0-0.8,0-1.6,0-2.3c0-0.4,0.1-0.6,0.6-0.6c0.8,0,1.5,0,2.3,0
			c0.4,0,0.5,0.2,0.5,0.5c0,0.9,0,1.7,0,2.6c0,0.4,0.1,0.5,0.5,0.5c1.3,0,2.6,0,3.9,0c0.6,0,0.7,0.2,0.7,0.8c0,1-0.1,1.9-0.4,2.8
			c-0.9,2.5-1.7,5-2.6,7.6c0,0.4-0.4,0.6-0.8,0.6c0,0,0,0,0,0c-0.7,0-1.4,0-2.1,0c-0.6,0-0.6-0.2-0.4-0.7c0.9-2.7,1.8-5.4,2.7-8.1
			c0.2-0.6,0.1-0.7-0.5-0.7c-1.3,0-2.5,0-3.8,0c-0.4,0-0.5-0.1-0.5-0.5C136.5,165.2,136.5,164.4,136.5,163.5z"/>
		<path id="Path_149183" class="st2" d="M215.3,169.9c0,1.1,0,2.2-0.2,3.2c0,1.4-1.2,2.6-2.6,2.6c-1.4,0.2-2.8,0.2-4.2,0
			c-0.9-0.1-0.2-1-0.4-1.6c-0.1-0.3-0.2-0.7,0.4-0.7c0.6,0,1.3,0,1.9,0c1,0,1.5-0.4,1.6-1.4c0.2-1.5,0.2-2.9,0-4.4
			c-0.1-0.9-0.5-1.2-1.5-1.3c-0.7,0-1.3,0-2,0c-0.4,0-0.5-0.1-0.5-0.5c-0.1-1.8-0.1-1.8,1.7-1.8c1-0.1,2.1,0,3.1,0.1
			c1.3,0.1,2.3,1.2,2.5,2.5C215.3,167.8,215.4,168.9,215.3,169.9z"/>
		<path id="Path_149184" class="st2" d="M171.1,170c0.1,1.2,0,2.3-0.2,3.5c-0.1,1.3-1.3,2.3-2.6,2.3c-1.4,0.1-2.8,0.1-4.2,0.1
			c0,0-0.1,0-0.2,0c-0.6-0.6-0.1-1.3-0.3-1.9c-0.1-0.4,0.2-0.4,0.5-0.4c0.6,0,1.2,0,1.8,0c1,0,1.5-0.4,1.6-1.4c0.2-1.5,0.2-3,0-4.4
			c-0.1-0.9-0.5-1.2-1.5-1.3c-0.7,0-1.3,0-2,0c-0.2,0-0.4,0.1-0.4-0.2c0-0.6,0-1.3,0-1.9c0-0.2,0.2-0.2,0.3-0.2
			c1.5-0.1,2.9,0,4.4,0.1c1.4,0.1,2.5,1.2,2.5,2.6C171.1,168,171.2,169,171.1,170z"/>
		<path id="Path_149185" class="st2" d="M122.6,172.8c-0.3,0.7-0.5,1.3-0.8,1.9c-0.3,0.7-0.8,1.3-1.5,1.6c-0.4,0.2-0.7,0.2-0.6-0.4
			c0-0.3,0-0.6,0-0.9c-0.2-1,0.2-2,1.1-2.5c1.8-1.1,2-3.1,1.8-5c-0.1-0.8-0.7-0.9-1.4-1c-1.3,0-1.2,0-1.3-1.3c0-0.8,0.2-1,1-1
			c1,0,2.1,0,3.1,0.2c0.9,0.1,1.7,0.9,1.8,1.8c0.1,0.7,0.2,1.4,0.2,2.1c-0.1,2.4,0,4.8,0.6,7.2c0.1,0.3,0,0.5-0.4,0.4
			c-0.7,0-1.4,0-2.1,0c-0.7,0.1-0.9-0.3-0.9-0.8c-0.1-0.7-0.2-1.5-0.3-2.2L122.6,172.8z"/>
		<path id="Path_149186" class="st2" d="M61.3,171.7c0-2.3,0-4.6,0-6.9c0-0.5,0.1-0.7,0.6-0.6c0.8,0,1.5,0,2.3,0
			c0.4,0,0.6,0.1,0.6,0.5c0,4.7,0,9.5,0,14.2c0,0.5-0.2,0.5-0.6,0.5c-0.8,0-1.6,0-2.3,0c-0.5,0-0.6-0.2-0.6-0.6
			C61.3,176.5,61.3,174.1,61.3,171.7z"/>
		<path id="Path_149187" class="st2" d="M197.3,171.8c0,2.3,0,4.7,0,7c0,0.5-0.2,0.7-0.7,0.7c-0.7,0-1.4,0-2,0
			c-0.6,0-0.7-0.2-0.7-0.7c0-4.2,0-8.4,0-12.5c0-0.5,0-1,0-1.4s0.2-0.6,0.6-0.6c0.7,0,1.5,0,2.2,0c0.5,0,0.6,0.1,0.6,0.6
			C197.3,167.1,197.3,169.4,197.3,171.8z"/>
		<path id="Path_149188" class="st2" d="M160.3,170.9c0,1.4,0,2.9,0,4.3c0,0.5-0.1,0.7-0.7,0.7c-1.4,0-2.8,0-4.2,0
			c-0.4,0-0.6-0.1-0.5-0.5c0-0.1,0-0.2,0-0.2c0-1.5,0-1.5,1.4-1.5c0.4,0,0.5-0.1,0.5-0.5c0-1.7,0-3.5,0-5.2c0-1.1-0.2-1.4-1.4-1.4
			c-0.4,0-0.5-0.1-0.6-0.6c0-1.7-0.1-1.7,1.6-1.7c0.5,0,1,0,1.5,0c1.5,0.1,2.1,0.6,2.1,2.1C160.3,167.9,160.3,169.4,160.3,170.9
			C160.3,170.9,160.3,170.9,160.3,170.9z"/>
		<path id="Path_149189" class="st2" d="M61.1,188.9c0-1.9,0-3.9,0-5.8c0-0.6,0.2-0.6,0.7-0.6s0.7,0,0.7,0.6c0,1.4,0,2.9,0,4.3
			c0,0.5,0.1,0.7,0.7,0.7c1,0,2,0,3,0c0.4,0,0.6-0.2,0.5-0.6c0-1.5,0-3,0-4.5c0-0.5,0.2-0.6,0.7-0.6c0.4,0,0.7,0,0.7,0.6
			c0,3.9,0,7.8,0,11.7c0,0.7-0.3,0.6-0.8,0.6c-0.5,0-0.7-0.1-0.6-0.6c0-1.6,0-3.1,0-4.7c0-0.5-0.1-0.7-0.6-0.6c-1,0-2,0-2.9,0
			c-0.5,0-0.7,0.1-0.6,0.6c0,1.5,0,3.1,0,4.6c0,0.6-0.2,0.7-0.7,0.7c-0.6,0-0.7-0.2-0.7-0.7C61.2,192.7,61.1,190.8,61.1,188.9z"/>
		<path id="Path_149190" class="st2" d="M151.6,170.1c0,1.7,0,3.4,0,5.1c0,0.5-0.2,0.7-0.7,0.7c-0.7,0-1.5,0-2.2,0
			c-0.4,0-0.6-0.1-0.6-0.6c0-3.5,0-7.1,0-10.6c0-0.4,0.2-0.6,0.6-0.5c0.8,0,1.6,0,2.3,0c0.5,0,0.6,0.2,0.6,0.6
			C151.6,166.6,151.6,168.3,151.6,170.1z"/>
		<path id="Path_149191" class="st2" d="M129.9,169.9c0-1.7,0-3.4,0-5.1c0-0.5,0.1-0.7,0.6-0.6c0.8,0,1.5,0,2.3,0
			c0.4,0,0.6,0.1,0.6,0.5c0,3.5,0,7.1,0,10.6c0,0.4-0.1,0.5-0.5,0.5c-0.8,0-1.6,0-2.4,0c-0.5,0-0.5-0.2-0.5-0.6V169.9z"/>
		<path id="Path_149192" class="st2" d="M68.7,170c0-1.7,0-3.4,0-5.1c0-0.6,0.2-0.7,0.7-0.7c0.8,0,1.5,0,2.3,0
			c0.3,0,0.5,0.1,0.5,0.5c0,3.6,0,7.2,0,10.7c0,0.4-0.2,0.5-0.5,0.5c-0.8,0-1.6,0-2.4,0c-0.5,0-0.5-0.2-0.5-0.6
			C68.7,173.5,68.7,171.8,68.7,170z"/>
		<path id="Path_149193" class="st2" d="M204.5,170.1c0,1.7,0,3.4,0,5.1c0,0.5-0.1,0.7-0.6,0.7c-0.8,0-1.5,0-2.3,0
			c-0.4,0-0.5,0-0.5-0.5c0-3.6,0-7.1,0-10.7c0-0.4,0.2-0.5,0.5-0.5c0.8,0,1.6,0,2.3,0c0.4,0,0.5,0.1,0.5,0.6
			C204.5,166.5,204.5,168.3,204.5,170.1z"/>
		<path id="Path_149194" class="st2" d="M87,169.9c0-1.7,0-3.4,0-5.1c0-0.5,0.1-0.7,0.6-0.6c0.8,0,1.5,0,2.3,0
			c0.4,0,0.5,0.1,0.5,0.5c0,3.6,0,7.1,0,10.7c0,0.3-0.1,0.5-0.5,0.5c-0.8,0-1.6,0-2.4,0c-0.5,0-0.5-0.2-0.5-0.6
			C87,173.5,87,171.7,87,169.9z"/>
		<path id="Path_149195" class="st2" d="M185.8,187.6c0.4-1,1.4-1.5,2.5-1.3c0.7,0,1.4,0.6,1.6,1.3c0.1,0.4,0.2,0.9,0.2,1.3
			c0,2,0,3.9,0,5.9c0,0.5-0.1,0.6-0.6,0.6c-0.5,0-0.6-0.2-0.6-0.7c0-1.9,0-3.8,0-5.7c0-1.2-0.6-1.8-1.7-1.6
			c-0.7,0.1-1.2,0.6-1.3,1.2c-0.2,0.7-0.2,1.4-0.2,2.1c0,1.4,0,2.8,0,4.2c0,0.6-0.2,0.6-0.7,0.6c-0.5,0-0.6-0.2-0.6-0.6
			c0-3.9,0-7.8,0-11.7c0-0.5,0.1-0.6,0.6-0.6s0.7,0.1,0.7,0.6c0,1.5,0,2.9,0,4.3C185.7,187.5,185.7,187.5,185.8,187.6z"/>
		<path id="Path_149196" class="st3" d="M167.9,189.6c0,1.7,0,3.4,0,5.1c0,0.6-0.3,0.6-0.7,0.6c-0.5,0-0.7,0-0.7-0.6
			c0-3.4,0-6.8,0-10.2c0-0.6-0.2-0.8-0.7-0.8c-0.6,0-1.3,0-1.9,0c-0.5,0-0.5-0.3-0.5-0.6s-0.2-0.7,0.5-0.7c2.2,0,4.4,0,6.6,0
			c0.6,0,0.5,0.4,0.5,0.7c0,0.3,0.1,0.7-0.5,0.6c-0.6,0-1.2,0-1.8,0c-0.6-0.1-0.8,0.1-0.8,0.8C168,186.3,167.9,187.9,167.9,189.6z"
			/>
		<path id="Path_149197" class="st2" d="M222.8,186.4c0.3,0,0.5,0,0.8,0c0.5,0,0.7,0.1,0.8,0.6c0.5,2,1.1,4,1.6,6.1
			c0.1,0.2,0,0.5,0.3,0.7c0.4-1.6,0.8-3.1,1.2-4.7l0.5-2c0.2-0.5,0.7-0.8,1.2-0.6c0,0,0,0,0.1,0c0.3,0.2,0.1,0.4,0,0.6
			c-0.6,2-1.2,4-1.8,6c-0.5,1.7-1,3.4-1.5,5.1c-0.1,0.5-0.5,0.8-0.9,0.7c0,0-0.1,0-0.1,0c-0.3,0-0.5-0.1-0.3-0.4
			c0-0.1,0-0.2,0.1-0.2c0.7-1.9,0.7-3.9-0.2-5.8C224,190.5,223.5,188.5,222.8,186.4z"/>
		<path id="Path_149198" class="st2" d="M110.6,195.5c-1.6,0-2.5-0.7-2.6-2.1c0-0.2-0.3-0.7,0.3-0.7c0.4,0,1-0.4,1.1,0.4
			c0.2,1,0.7,1.4,1.7,1.2c0.5-0.1,0.9-0.4,1.1-0.9c0.2-0.5,0-1-0.4-1.3c-0.5-0.3-1-0.6-1.5-0.9c-0.5-0.2-1-0.6-1.4-1
			c-0.7-0.7-0.9-1.7-0.5-2.6c0.4-1.1,1.6-1.6,3.2-1.4c1,0.1,1.8,0.9,1.9,1.8c0,0.2,0.2,0.6-0.2,0.6c-0.4-0.1-0.9,0.4-1.1-0.3
			c-0.1-0.7-0.7-1.2-1.4-1.1c-0.1,0-0.3,0-0.4,0.1c-0.6,0.2-1,0.8-0.9,1.4c0.1,0.2,0.2,0.4,0.3,0.6c0.2,0.2,0.5,0.4,0.8,0.6
			c0.5,0.3,1,0.5,1.5,0.8c1.3,0.6,1.8,2.2,1.2,3.5C112.7,195.1,111.7,195.7,110.6,195.5L110.6,195.5z"/>
		<path id="Path_149199" class="st2" d="M102.5,187.5c0.4-0.9,1.4-1.5,2.4-1.3c0.9,0,1.6,0.7,1.8,1.6c0.2,1.1,0.2,2.3,0.1,3.4
			c0,1.2,0,2.4,0,3.6c0,0.5-0.2,0.6-0.6,0.6s-0.6-0.1-0.6-0.6c0-1.7,0-3.5,0-5.2c0-0.3,0-0.7-0.1-1c0-0.7-0.5-1.3-1.2-1.3
			c-0.8-0.2-1.5,0.3-1.7,1c-0.2,0.6-0.3,1.2-0.2,1.9c0,1.5,0,3,0,4.5c0,0.4-0.1,0.6-0.6,0.6c-0.4,0-0.7,0-0.7-0.6c0-2.6,0-5.2,0-7.9
			c0-0.5,0.2-0.6,0.6-0.5c0.3,0,0.8-0.2,0.7,0.5C102.3,187.1,102.4,187.4,102.5,187.5z"/>
		<path id="Path_149200" class="st2" d="M193.1,187.4c0.5-0.8,1.4-1.2,2.3-1.2c1-0.1,1.9,0.6,2,1.6c0,0,0,0.1,0,0.1
			c0.1,1.3,0.2,2.7,0.1,4c0,1,0,1.9,0,2.9c0,0.6-0.3,0.5-0.7,0.5c-0.4,0-0.6-0.1-0.6-0.5c0-1.7,0-3.4,0-5.1c0-0.4,0-0.8-0.1-1.1
			c0-0.6-0.5-1.2-1.1-1.2c-0.7-0.2-1.5,0.2-1.8,0.9c-0.2,0.6-0.3,1.2-0.3,1.8c0,1.6,0,3.2,0,4.8c0,0.5-0.2,0.6-0.6,0.6
			c-0.4,0-0.6-0.1-0.6-0.6c0-2.6,0-5.2,0-7.8c0-0.4,0-0.7,0.5-0.6c0.4,0,0.8,0,0.7,0.6C193.1,187.1,193.1,187.3,193.1,187.4z"/>
		<path id="Path_149201" class="st2" d="M88.8,187.5c0.4-0.7,1.1-1.2,1.9-1.2c1.4,0,2.2,0.6,2.3,1.9c0.1,2.3,0,4.5,0.1,6.8
			c0,0.6-0.4,0.4-0.7,0.4c-0.4,0.1-0.6-0.1-0.6-0.6c0-2,0-3.9,0-5.9c0-1.2-0.6-1.7-1.7-1.6c-0.5,0-1,0.3-1.2,0.8
			c-0.2,0.5-0.3,1-0.3,1.5c0,1.7,0,3.4,0,5.1c0,0.5-0.2,0.6-0.7,0.6s-0.6-0.1-0.6-0.6c0-2.7,0.1-5.3-0.1-8c0-0.3,0.1-0.4,0.4-0.4
			c0.3,0.1,0.8-0.3,0.9,0.3c0,0.2,0,0.4,0,0.6C88.7,187.4,88.8,187.4,88.8,187.5z"/>
		<path id="Path_149202" class="st2" d="M131.3,194.2c-0.5,0.8-1.3,1.3-2.2,1.3c-1,0.1-1.9-0.6-2-1.7c0-0.1,0-0.2,0-0.3
			c-0.1-2.3,0-4.5,0-6.8c0-0.6,0.4-0.3,0.7-0.4c0.3,0,0.6,0,0.5,0.5c0,1.8,0,3.6,0,5.4c0,0.3,0,0.6,0,0.9c0,0.7,0.6,1.2,1.3,1.3
			c0.7,0.1,1.4-0.4,1.6-1c0.2-0.5,0.3-1,0.2-1.6c0-1.6,0-3.2,0-4.8c0-0.5,0-0.8,0.6-0.8c0.7,0,0.6,0.4,0.6,0.8c0,2.5,0,5.1,0,7.6
			c0,0.4,0,0.6-0.5,0.5c-0.3,0-0.9,0.2-0.8-0.5C131.3,194.6,131.3,194.4,131.3,194.2z"/>
		<path id="Path_149203" class="st2" d="M113.2,167.8c0-1,0-2,0-3c0-0.4,0.1-0.6,0.6-0.6c0.8,0,1.6,0,2.3,0c0.4,0,0.5,0.1,0.5,0.5
			c0,1.9,0,3.7,0,5.6c0,0.3-0.2,0.6-0.5,0.6c0,0-0.1,0-0.1,0c-0.8,0.1-1.5,0.3-2.3,0.4c-0.5,0.1-0.6,0-0.6-0.5
			C113.2,169.9,113.2,168.8,113.2,167.8z"/>
		<path id="Path_149204" class="st2" d="M177.3,191.1c-0.1-1.1,0.1-2.2,0.4-3.3c0.6-1.2,2-1.9,3.3-1.5c1.1,0.2,1.8,1.2,1.8,2.3
			c0,0.2,0.2,0.6-0.3,0.6c-0.3,0-0.9,0.3-1-0.4c-0.2-1.2-0.5-1.4-1.3-1.4c-0.8,0-1.3,0.5-1.5,1.5c-0.2,1.4-0.2,2.8,0.1,4.1
			c0,0.6,0.4,1.1,0.9,1.3c0.9,0.4,1.7-0.1,1.9-1.3c0.1-0.3,0-0.6,0.5-0.6c0.8,0,0.9,0,0.8,0.8c-0.1,1.2-1.1,2.1-2.2,2.2
			c-1.3,0.3-2.6-0.5-2.9-1.8c-0.1-0.3-0.2-0.7-0.2-1C177.3,192.1,177.3,191.5,177.3,191.1z"/>
		<path id="Path_149205" class="st2" d="M156.8,191.3c0-1.1,0-2.2,0-3.3c0-0.5-0.1-0.7-0.6-0.6c-0.3,0-0.6,0-0.6-0.5
			c0-0.5,0.2-0.5,0.6-0.5c0.6,0.1,0.7-0.2,0.7-0.7c0-0.5,0-1,0-1.5c0.1-1.1,1.2-2,2.3-1.8c0.1,0,0.2,0,0.3,0.1
			c0.3,0.1,0.3,0.3,0.3,0.5s0.1,0.5-0.3,0.5c-0.5,0-1,0.1-1.3,0.7c-0.2,0.7-0.2,1.4-0.1,2.1c0.1,0.4,0.5,0.2,0.8,0.2
			c0.3,0.1,0.7-0.2,0.8,0.2c0.1,0.4,0.1,0.8-0.5,0.8c-0.1,0-0.2,0-0.3,0c-0.6-0.1-0.8,0.1-0.8,0.8c0,2.2,0,4.4,0,6.6
			c0,0.5-0.1,0.7-0.6,0.7c-0.5,0-0.7-0.2-0.6-0.7C156.8,193.6,156.8,192.5,156.8,191.3z"/>
		<path id="Path_149206" class="st2" d="M124.1,184.1c0,0.6,0,1.1,0,1.6c0,0.6,0.2,0.7,0.7,0.7c0.2,0,0.4,0,0.6,0
			c0.4,0,0.5,0.1,0.5,0.5c0,0.4-0.1,0.5-0.5,0.5c-1.3,0.1-1.3,0.1-1.3,1.4v4.2c0,1,0.3,1.3,1.4,1.3c0.2,0,0.4-0.2,0.4,0.2
			c0,0.3,0.2,0.7-0.2,0.8c-0.7,0.2-1.5,0.2-2.1-0.1c-0.5-0.3-0.8-0.9-0.7-1.4c0-1.9,0-3.8,0-5.7c0-0.5-0.1-0.9-0.7-0.8
			c-0.4,0.1-0.7,0-0.7-0.5c0-0.5,0.3-0.5,0.6-0.5c0.6,0.1,0.8-0.2,0.7-0.8C122.8,184.5,122.9,184.5,124.1,184.1z"/>
		<path id="Path_149207" class="st2" d="M136.1,184.1c0,0.6,0,1.2,0,1.7c0,0.4,0.1,0.6,0.6,0.6c0.3,0,0.6,0,0.8,0
			c0.3,0,0.4,0.2,0.4,0.5c0,0.3,0,0.5-0.4,0.5s-1-0.2-1.3,0.1s-0.1,0.9-0.1,1.4c0,1.3,0,2.7,0,4c0,1.2,0.3,1.4,1.4,1.4
			c0.2,0,0.4,0,0.4,0.3c0,0.3,0.2,0.6-0.3,0.8c-0.9,0.5-2.1,0.1-2.6-0.8c-0.2-0.3-0.3-0.7-0.2-1.1c0-1.8,0-3.6,0-5.4
			c0-0.6-0.1-0.8-0.7-0.7c-0.2,0-0.6,0.2-0.7-0.3c0-0.4,0-0.7,0.5-0.6c0.7,0.1,1-0.1,0.8-0.8C134.7,184.7,135.2,184.3,136.1,184.1z"
			/>
		<path id="Path_149208" class="st2" d="M116.6,184.1v1.2c0,1.2-0.1,1,1,1.1c0.1,0,0.3,0,0.4,0c0.4,0,0.4,0.2,0.4,0.5
			c0,0.3,0,0.5-0.4,0.5c-1.4,0.1-1.4,0.1-1.4,1.5c0,1.3,0,2.7,0,4c0,1.2,0.3,1.4,1.4,1.4c0.2,0,0.4,0,0.4,0.3c0,0.3,0.2,0.6-0.3,0.7
			c-1.6,0.5-2.8-0.2-2.8-1.9c0-1.7,0-3.5,0-5.2c0-0.6-0.1-1-0.8-0.8c-0.5,0.1-0.6-0.2-0.6-0.6c0-0.5,0.4-0.4,0.6-0.4
			c0.6,0.1,0.8-0.2,0.7-0.8C115.3,184.5,115.4,184.5,116.6,184.1z"/>
		<path id="Path_149209" class="st2" d="M99.5,189c0,1.9,0,3.8,0,5.7c0,0.6-0.2,0.7-0.7,0.7c-0.5,0-0.7,0-0.7-0.6
			c0-3.9,0-7.8,0-11.6c0-0.6,0.2-0.6,0.7-0.7c0.5,0,0.7,0.1,0.7,0.6C99.4,185.1,99.5,187,99.5,189z"/>
		<path id="Path_149210" class="st3" d="M78.5,189c0,1.9,0,3.8,0,5.8c0,0.5-0.1,0.7-0.6,0.7c-0.5,0-0.6-0.1-0.6-0.6
			c0-3.9,0-7.8,0-11.6c0-0.5,0.1-0.7,0.6-0.7s0.6,0.1,0.6,0.6C78.5,185.1,78.5,187,78.5,189z"/>
		<path id="Path_149211" class="st2" d="M206.5,188.9c0-1.9,0-3.9,0-5.8c0-0.5,0.1-0.6,0.6-0.6c0.5,0,0.7,0.1,0.7,0.6
			c0,3.9,0,7.8,0,11.7c0,0.6-0.2,0.6-0.7,0.6c-0.5,0-0.6-0.2-0.6-0.6C206.5,192.8,206.5,190.8,206.5,188.9z"/>
		<path id="Path_149212" class="st2" d="M120.6,191c0,1.3,0,2.6,0,3.8c0,0.5-0.2,0.6-0.6,0.6c-0.4,0-0.6-0.1-0.6-0.6
			c0-2.6,0-5.2,0-7.9c0-0.5,0.2-0.6,0.6-0.6c0.4,0,0.7,0.1,0.6,0.6C120.6,188.3,120.6,189.6,120.6,191z"/>
		<path id="Path_149213" class="st4" d="M119.3,183.2c-0.1-0.6,0.1-0.7,0.7-0.8c0.7,0,0.7,0.3,0.7,0.8c0.1,0.7-0.2,0.7-0.8,0.7
			C119.3,184,119.2,183.7,119.3,183.2z"/>
		<path id="Path_149214" class="st2" d="M221.9,187.1c0-0.5-0.1-0.7-0.7-0.7c-0.8-0.1-0.6,0.5-0.7,1c-1.6-1.6-3.3-1.4-4,0.5
			c-0.7,2-0.7,4.2,0,6.1c0.4,1.1,1.6,1.7,2.7,1.3c0.2-0.1,0.4-0.2,0.6-0.3c0.2-0.2,0.4-0.4,0.7-0.6c0,0.8,0,1.5,0,2.3
			c-0.1,0.8-0.8,1.3-1.6,1.1c-0.4-0.1-0.8-0.3-1-0.7c-0.2-0.4-1-0.8-1.3-0.5c-0.4,0.3-0.1,0.7,0,1c0.1,0.4,0.4,0.7,0.7,0.8
			c1.1,0.6,2.3,0.6,3.4,0.1c1-0.5,1.1-1.4,1.1-2.4C221.9,193.1,221.9,190.1,221.9,187.1z M220.5,193.1c-0.1,0.7-0.7,1.2-1.4,1.2
			c-0.7,0-1.3-0.5-1.4-1.2c-0.3-1.4-0.4-2.9-0.1-4.3c0.2-1,0.7-1.5,1.5-1.5c0.8,0,1.3,0.6,1.5,1.6c0.1,0.6,0.1,1.3,0.2,1.9
			C220.8,191.6,220.7,192.3,220.5,193.1L220.5,193.1z"/>
		<path id="Path_149215" class="st2" d="M175.6,192.8c-0.5,0-1.1-0.2-1.2,0.6c-0.1,0.7-0.8,1.1-1.4,1.1c-0.7,0-1.2-0.4-1.4-1.1
			c-0.1-0.5-0.2-1.1-0.2-1.6c0-0.3,0.1-0.5,0.4-0.4c0.6,0,1.3,0,1.9,0c0.6,0,1.2,0,1.8,0c0.3,0,0.5-0.1,0.4-0.4c0-0.8,0-1.7-0.2-2.5
			c-0.1-1.3-1.2-2.2-2.5-2.1c-1.7-0.1-2.6,0.5-3,2c-0.4,1.5-0.4,3-0.2,4.6c0.3,2.1,1.4,3,3.5,2.7c1.2-0.1,2.1-1.1,2.2-2.3
			C175.8,193,175.9,192.7,175.6,192.8z M172,187.6c0.4-0.4,1.1-0.5,1.6-0.3c0.2,0.1,0.4,0.2,0.6,0.5c0.1,0.1,0.1,0.2,0.2,0.3
			c0.3,0.6,0.3,1.3,0.1,1.9c-0.2,0.4-1,0.1-1.4,0.1c-0.1,0-0.2,0-0.3,0c-0.5-0.1-1,0.2-1.3-0.2C171.1,189.8,171.6,188,172,187.6
			L172,187.6z"/>
		<path id="Path_149216" class="st2" d="M143.5,192.7c-0.5,0-0.5,0.4-0.6,0.7c-0.2,0.7-0.8,1.1-1.5,1c-0.7,0-1.2-0.4-1.3-1.1
			c-0.1-0.5-0.2-1-0.2-1.6c0-0.4,0.2-0.5,0.5-0.5c0.6,0,1.2,0,1.7,0c0.6,0,1.2,0,1.8,0c0.3,0,0.5-0.1,0.5-0.5c0-0.9-0.1-1.8-0.2-2.7
			c-0.2-1-1-1.8-2.1-1.9c-1.6-0.2-2.7,0.3-3.1,1.4c-0.8,2.1-0.8,4.4,0,6.5c0.4,1.1,1.4,1.5,3,1.4c1.1,0,2-0.8,2.2-1.8
			C144.5,192.8,144.4,192.7,143.5,192.7z M140.5,187.6c0.4-0.4,1.1-0.5,1.6-0.3c0.3,0.1,0.5,0.3,0.6,0.6c0.1,0.3,0.2,0.6,0.3,0.9
			c0.2,1.4,0.2,1.4-1.1,1.4h-0.4c-0.1,0-0.2,0-0.2,0c-0.5-0.1-1,0.2-1.3-0.2C139.6,189.8,140.1,188,140.5,187.6L140.5,187.6z"/>
		<path id="Path_149217" class="st2" d="M204.9,188c-0.3-1.3-1.3-1.8-2.7-1.8c-1.2-0.1-2.4,0.6-2.7,1.8c-0.3,0.9-0.4,1.9-0.3,2.9
			c0,0.9,0.1,1.8,0.3,2.7c0.3,1.2,1.4,2,2.6,1.9c1.6,0,2.4-0.4,2.8-1.7C205.5,191.9,205.5,189.9,204.9,188z M203.7,193.3
			c-0.1,0.7-0.8,1.2-1.5,1.1c-0.7,0.1-1.3-0.4-1.5-1.1c-0.2-0.9-0.3-1.7-0.3-2.6c0-0.7,0-1.5,0.2-2.2c0.1-0.8,0.8-1.3,1.6-1.2
			c0.7-0.1,1.4,0.5,1.5,1.2C204.1,190.1,204.1,191.7,203.7,193.3L203.7,193.3z"/>
		<path id="Path_149218" class="st2" d="M214.7,187.9c-0.4-1.2-1.6-1.9-2.8-1.7c-1.2-0.1-2.3,0.6-2.6,1.8c-0.5,1.9-0.5,3.9,0,5.8
			c0.3,1.2,1.2,1.7,2.6,1.7c1.5,0,2.3-0.4,2.8-1.6c0.3-1,0.4-2,0.4-3C215.1,189.9,215,188.9,214.7,187.9z M213.5,193.5
			c-0.2,0.6-0.8,1.1-1.4,1c-0.6,0.1-1.3-0.3-1.4-1c-0.2-0.9-0.3-1.8-0.3-2.8c0-0.7,0-1.4,0.2-2.1c0.1-0.7,0.7-1.3,1.5-1.2
			c0.7-0.1,1.4,0.3,1.6,1.1c0,0,0,0,0,0.1C214,190.1,213.9,191.8,213.5,193.5L213.5,193.5z"/>
		<path id="Path_149219" class="st2" d="M154.7,188.2c-0.4-1.4-1.3-2-2.9-2c-1.3-0.1-2.5,0.8-2.7,2.1c-0.2,0.8-0.2,1.6-0.2,2.5
			c-0.1,1,0.1,2,0.3,2.9c0.3,1.2,1.5,2,2.7,1.8c1.5,0,2.3-0.5,2.7-1.8C155.1,192,155.1,190,154.7,188.2z M153.5,193.1
			c-0.2,0.9-0.7,1.3-1.5,1.3c-0.7,0.1-1.4-0.4-1.6-1.1c0,0,0-0.1,0-0.1c-0.4-1.5-0.4-3-0.1-4.6c0.1-0.8,0.8-1.4,1.6-1.3
			c0.9,0,1.3,0.3,1.6,1.3c0.1,0.2,0.1,0.3,0.1,0.5c0,0.5,0.1,1.1,0.1,1.4C153.7,191.4,153.6,192.3,153.5,193.1L153.5,193.1z"/>
		<path id="Path_149220" class="st2" d="M75.9,190.9c0-1-0.1-1.9-0.3-2.8c-0.3-1.1-1.4-1.9-2.6-1.8c-1.5,0-2.4,0.5-2.8,1.7
			c-0.6,2-0.6,4.1,0,6c0.4,1.2,1.2,1.6,2.8,1.6c1.2,0.1,2.2-0.6,2.6-1.7C75.8,192.9,75.9,191.9,75.9,190.9z M74.6,190.7
			c0,0.9-0.1,1.8-0.3,2.6c-0.1,0.7-0.7,1.2-1.5,1.2c-0.7,0.1-1.4-0.4-1.5-1.1c0,0,0,0,0,0c-0.4-1.5-0.4-3.2-0.1-4.7
			c0.1-0.8,0.7-1.4,1.5-1.3c0,0,0.1,0,0.1,0c0.8-0.1,1.5,0.5,1.6,1.3C74.6,189.3,74.6,190,74.6,190.7L74.6,190.7z"/>
		<path id="Path_149221" class="st2" d="M86,190.5c0-0.8-0.1-1.6-0.3-2.4c-0.3-1.1-1.4-1.9-2.6-1.8c-1.5,0-2.4,0.4-2.8,1.7
			c-0.6,2-0.6,4.1,0,6c0.4,1.2,1.2,1.6,2.8,1.6c1.2,0.1,2.2-0.6,2.6-1.7C86,192.8,86.1,191.6,86,190.5z M84.7,190.7
			c0,0.9-0.1,1.8-0.3,2.6c-0.1,0.7-0.7,1.2-1.5,1.2c-0.7,0.1-1.4-0.4-1.5-1.1c-0.4-1.5-0.4-3.2-0.1-4.7c0.1-0.8,0.7-1.4,1.5-1.3
			c0,0,0.1,0,0.1,0c0.8-0.1,1.5,0.5,1.6,1.3C84.7,189.3,84.8,190,84.7,190.7L84.7,190.7z"/>
	</g>
</g>
</svg>
